<?xml version="1.0" encoding="UTF-8"?>
<svg version="1.1" xmlns="http://www.w3.org/2000/svg" width="225" height="225">
<path d="M0 0 C74.25 0 148.5 0 225 0 C225 74.25 225 148.5 225 225 C150.75 225 76.5 225 0 225 C0 150.75 0 76.5 0 0 Z " fill="#FBFBFB" transform="translate(0,0)"/>
<path d="M0 0 C74.25 0 148.5 0 225 0 C225 74.25 225 148.5 225 225 C150.75 225 76.5 225 0 225 C0 150.75 0 76.5 0 0 Z M106.62109375 18.12109375 C101.04399913 22.09616119 95.24255282 25.13617084 89.0625 28.0625 C87.97291992 28.58054199 86.88333984 29.09858398 85.76074219 29.63232422 C69.25210402 37.3113789 53.28270274 41.53634355 35.1015625 42.54296875 C33.92847534 42.60985901 33.92847534 42.60985901 32.73168945 42.67810059 C30.82120731 42.78683315 28.91061444 42.89361746 27 43 C26.93022929 54.13610205 26.87705192 65.27215138 26.84456348 76.40842819 C26.82896402 81.58046995 26.80783113 86.75236123 26.77368164 91.92431641 C26.74088309 96.92343864 26.72310407 101.92241689 26.71536827 106.92163849 C26.70986134 108.82084669 26.69910849 110.72004778 26.68280983 112.61919403 C26.59873637 122.82948809 26.7129092 132.1998806 30 142 C30.52980469 143.63582031 30.52980469 143.63582031 31.0703125 145.3046875 C36.6406748 158.87986673 44.78675001 169.62851656 55 180 C55.53278564 180.55905029 56.06557129 181.11810059 56.61450195 181.6940918 C60.73985683 185.95604396 65.07872047 189.54225614 69.9375 192.9375 C70.6711377 193.45111084 71.40477539 193.96472168 72.16064453 194.49389648 C86.99884919 204.64810783 102.48571521 212.15887728 120.86328125 209.6015625 C140.42470768 205.5251624 156.94732062 192.5329797 171 179 C171.64453125 178.41863281 172.2890625 177.83726562 172.953125 177.23828125 C185.89803995 165.23096528 197.25603059 145.97532159 198.09012032 128.06483841 C198.12249733 125.82012071 198.12371697 123.5774504 198.11352539 121.33251953 C198.11374443 120.05836433 198.11374443 120.05836433 198.1139679 118.75846863 C198.11327437 115.96655677 198.10550826 113.17471263 198.09765625 110.3828125 C198.09579008 108.44082679 198.09436712 106.4988406 198.09336853 104.55685425 C198.08955902 99.45726206 198.07974214 94.35769856 198.06866455 89.25811768 C198.05841673 84.04968656 198.05386369 78.8412508 198.04882812 73.6328125 C198.03811843 63.42186243 198.02106086 53.2109336 198 43 C197.29537125 42.9508696 196.59074249 42.9017392 195.86476135 42.85112 C192.61889331 42.62049633 189.37394842 42.37867515 186.12890625 42.13671875 C185.02083618 42.05965698 183.91276611 41.98259521 182.77111816 41.90319824 C166.6651382 40.68022164 152.46347372 35.98366273 138 29 C137.38253906 28.70834961 136.76507813 28.41669922 136.12890625 28.11621094 C128.78031347 24.64000029 121.85489073 20.82540722 115.109375 16.28515625 C111.26925183 13.94552565 109.95112224 15.63577183 106.62109375 18.12109375 Z " fill="#FEFEFE" transform="translate(0,0)"/>
<path d="M0 0 C3.79832253 1.33671735 7.01671539 3.16521246 10.41552734 5.2746582 C30.47803063 17.66979814 51.56389054 25.47307082 75.109375 27.12890625 C76.25776855 27.21499146 77.40616211 27.30107666 78.58935547 27.38977051 C81.39252532 27.59906024 84.19598997 27.80234388 87 28 C87.06977071 39.13610205 87.12294808 50.27215138 87.15543652 61.40842819 C87.17103598 66.58046995 87.19216887 71.75236123 87.22631836 76.92431641 C87.25911691 81.92343864 87.27689593 86.92241689 87.28463173 91.92163849 C87.29013866 93.82084669 87.30089151 95.72004778 87.31719017 97.61919403 C87.40126363 107.82948809 87.2870908 117.1998806 84 127 C83.64679688 128.09054688 83.29359375 129.18109375 82.9296875 130.3046875 C77.35195959 143.89781699 69.16299692 154.586837 59 165 C58.43023437 165.63164062 57.86046875 166.26328125 57.2734375 166.9140625 C44.23482813 181.02250649 23.66355483 193.21370775 4.44921875 195.2734375 C-18.2653614 196.10876859 -38.41955334 181.60892922 -54.41015625 166.90234375 C-69.0220592 153.05368588 -83.11816718 133.93567486 -84.09012032 113.06483841 C-84.12249733 110.82012071 -84.12371697 108.5774504 -84.11352539 106.33251953 C-84.11374443 105.05836433 -84.11374443 105.05836433 -84.1139679 103.75846863 C-84.11327437 100.96655677 -84.10550826 98.17471263 -84.09765625 95.3828125 C-84.09579008 93.44082679 -84.09436712 91.4988406 -84.09336853 89.55685425 C-84.08955902 84.45726206 -84.07974214 79.35769856 -84.06866455 74.25811768 C-84.05841673 69.04968656 -84.05386369 63.8412508 -84.04882812 58.6328125 C-84.03811843 48.42186243 -84.02106086 38.2109336 -84 28 C-82.95091209 27.93023201 -82.95091209 27.93023201 -81.88063049 27.85905457 C-78.6501311 27.63855067 -75.42085539 27.40333673 -72.19140625 27.16796875 C-70.54186951 27.05866028 -70.54186951 27.05866028 -68.85900879 26.94714355 C-48.61438792 25.43523659 -30.60136013 17.58724626 -12.8125 8.3125 C-12.10512695 7.94406982 -11.39775391 7.57563965 -10.66894531 7.19604492 C-6.77994423 5.11600153 -3.36234319 2.89226803 0 0 Z M-5.0234375 17.59765625 C-22.9554561 27.38265882 -39.57055196 33.96571932 -59.66015625 37.6875 C-60.85257935 37.91244141 -62.04500244 38.13738281 -63.27355957 38.36914062 C-66.18159109 38.91708342 -69.09037161 39.46061307 -72 40 C-72.0932524 49.40654469 -72.16404215 58.81292686 -72.20724869 68.21983528 C-72.22800025 72.58927018 -72.2560862 76.95838561 -72.30175781 81.32763672 C-72.34566486 85.55520581 -72.3692302 89.78247034 -72.37950897 94.01025009 C-72.38682083 95.61197571 -72.40109554 97.2136873 -72.42292023 98.81528091 C-72.71986236 121.53883946 -64.74615966 138.88284679 -49.08251953 155.32275391 C-35.66588129 168.98366749 -17.24118008 183.30957207 2.68725586 183.52124023 C21.21643868 183.01655432 38.39370367 168.29298195 51 156 C52.07507813 155.03513672 52.07507813 155.03513672 53.171875 154.05078125 C63.51215708 144.51704117 70.15139701 132.4074588 74 119 C74.17998032 118.4310199 74.35996063 117.86203979 74.5453949 117.27581787 C75.18486317 114.07454863 75.13053504 110.91104709 75.11352539 107.66113281 C75.11374443 106.56297997 75.11374443 106.56297997 75.1139679 105.44264221 C75.11327276 103.02943938 75.10549908 100.6163143 75.09765625 98.203125 C75.09579065 96.52732383 75.09436742 94.85152212 75.09336853 93.17572021 C75.08955452 88.76986174 75.07973376 84.36403634 75.06866455 79.95819092 C75.05842643 75.46041308 75.05386576 70.96262989 75.04882812 66.46484375 C75.0381105 57.64321465 75.02104747 48.82161008 75 40 C73.73357666 39.80881592 72.46715332 39.61763184 71.16235352 39.4206543 C69.46367335 39.15954456 67.765026 38.89822126 66.06640625 38.63671875 C65.23612915 38.51196167 64.40585205 38.38720459 63.55041504 38.25866699 C43.59253282 35.16619047 25.95689448 27.55532779 8.39233398 17.79394531 C2.71550429 14.67433913 0.57004008 14.48275267 -5.0234375 17.59765625 Z " fill="#050505" transform="translate(111,15)"/>
<path d="M0 0 C6.78068423 3.97488386 11.98565859 8.9525257 14.90234375 16.3515625 C16.86325528 24.03276625 16.49360543 31.78490312 12.8515625 38.859375 C10.65319634 42.40340771 8.20059724 45.7102277 5.5625 48.9375 C6.2225 49.14375 6.8825 49.35 7.5625 49.5625 C11.93299271 51.56564249 17.35173947 54.51597894 19.5625 58.9375 C16.9225 61.2475 14.2825 63.5575 11.5625 65.9375 C7.5625 63.9375 7.5625 63.9375 5.109375 62.4296875 C-3.36965754 57.52700667 -10.92683 56.52323869 -20.4375 57.9375 C-29.14236476 60.72501287 -35.11563778 65.17530534 -39.64453125 73.03125 C-41.69239697 77.14145399 -42.63415617 80.66613769 -42.9375 85.25 C-43.16898901 88.48078146 -43.346886 89.78763839 -45.0625 92.625 C-48.49196285 94.52022947 -50.73284064 93.91608927 -54.4375 92.9375 C-57.02995747 87.75258506 -55.79427032 80.37078023 -54.375 74.9375 C-50.59299061 63.82122006 -43.0288503 54.23317515 -32.4375 48.9375 C-31.7775 48.9375 -31.1175 48.9375 -30.4375 48.9375 C-30.90800781 48.3084375 -31.37851563 47.679375 -31.86328125 47.03125 C-38.11344894 38.43888696 -41.61589785 31.74509174 -40.4375 20.9375 C-38.97158048 12.40067455 -34.04041511 6.35977137 -27.18359375 1.26171875 C-18.85244723 -3.61069808 -8.78005503 -4.0225214 0 0 Z " fill="#030303" transform="translate(119.4375,65.0625)"/>
<path d="M0 0 C1 1 1 1 1.4375 4.125 C0.7054145 10.60918584 -3.57452218 13.84704237 -8.40234375 17.875 C-12.2263346 21.19317196 -15.72484365 24.75349189 -19.22265625 28.40625 C-20.34940473 29.57311431 -21.47636093 30.73977807 -22.60351562 31.90625 C-24.34721058 33.71192873 -26.08372163 35.52257608 -27.80297852 37.3515625 C-29.48703226 39.1385082 -31.19547133 40.89874244 -32.91015625 42.65625 C-33.41764908 43.20817017 -33.92514191 43.76009033 -34.44801331 44.32873535 C-35.94555664 45.83789062 -35.94555664 45.83789062 -39 48 C-43.10016081 47.94800084 -45.14341444 47.69615482 -48.3359375 45.1015625 C-49.00882813 44.28429687 -49.68171875 43.46703125 -50.375 42.625 C-51.12523438 41.73167969 -51.87546875 40.83835938 -52.6484375 39.91796875 C-53.42445312 38.95503906 -54.20046875 37.99210937 -55 37 C-55.83789062 35.98550781 -56.67578125 34.97101563 -57.5390625 33.92578125 C-59.11806276 32.0084238 -60.68911684 30.08447863 -62.25 28.15234375 C-63.82177538 26.14403815 -63.82177538 26.14403815 -65 25 C-65.1875 21.5625 -65.1875 21.5625 -65 18 C-63 16 -63 16 -60.1875 15.5625 C-54.24420754 16.37824602 -50.56982458 22.5160608 -46.6875 26.8125 C-45.80449219 27.78832031 -44.92148438 28.76414063 -44.01171875 29.76953125 C-43.01591797 30.87361328 -43.01591797 30.87361328 -42 32 C-37.34713429 28.11644133 -32.950104 24.07962714 -28.69921875 19.76171875 C-28.13676956 19.19548294 -27.57432037 18.62924713 -26.99482727 18.04585266 C-25.22323256 16.26217914 -23.45496696 14.47526323 -21.6875 12.6875 C-19.34010236 10.31354594 -16.98943012 7.94290533 -14.63671875 5.57421875 C-14.10028244 5.0294841 -13.56384613 4.48474945 -13.01115417 3.92350769 C-8.261036 -0.85813091 -6.68822608 -1.2160411 0 0 Z " fill="#040404" transform="translate(172,120)"/>
<path d="M0 0 C4.98669007 2.49334503 8.49675474 5.99350949 11 11 C11.59057744 16.67862925 11.29370905 21.16922672 8 26 C4.25777431 29.68235008 1.13048332 32.13859005 -4.1875 32.3125 C-9.26084903 32.24724792 -11.9025255 30.97267758 -16 28 C-19.94520763 23.84714986 -20.83705869 21.19970765 -21.25 15.625 C-20.93198404 11.01376861 -19.87486443 7.85486587 -16.53515625 4.55078125 C-11.04622771 -0.1329255 -7.07970777 -0.78421378 0 0 Z " fill="#FBFBFB" transform="translate(112,75)"/>
</svg>
